<svg xmlns="http://www.w3.org/2000/svg" viewBox="0 0 960 960" width="90" height="90">
          <g fill="#ffffff">
            <!-- 왼쪽 아래 발가락 -->
            <path d="
              M 200 330
              C 234 328, 261 349, 277 381
              C 294 414, 293 453, 275 483
              C 257 511, 229 523, 200 516
              C 170 509, 146 484, 135 452
              C 124 419, 130 383, 150 355
              C 164 338, 181 329, 200 330
              Z
            "/>

            <!-- 오른쪽 아래 발가락 -->
            <path d="
              M 760 330
              C 726 328, 699 349, 683 381
              C 666 414, 667 453, 685 483
              C 703 511, 731 523, 760 516
              C 790 509, 814 484, 825 452
              C 836 419, 830 383, 810 355
              C 796 338, 779 329, 760 330
              Z
            "/>

            <!-- 왼쪽 위 발가락 -->
            <path d="
              M 330 128
              C 348 122, 370 121, 388 127
              C 424 138, 443 177, 446 226
              C 449 275, 437 316, 411 340
              C 387 362, 351 364, 325 343
              C 296 320, 280 277, 277 229
              C 274 179, 294 139, 330 128
              Z
            "/>

            <!-- 오른쪽 위 발가락 -->
            <path d="
              M 630 128
              C 612 122, 590 121, 572 127
              C 536 138, 517 177, 514 226
              C 511 275, 523 316, 549 340
              C 573 362, 609 364, 635 343
              C 664 320, 680 277, 683 229
              C 686 179, 666 139, 630 128
              Z
            "/>

            <!-- 메인 패드: 기존보다 아주 조금 더 넓게 -->
            <path d="
              M 212 705
              C 212 756, 256 798, 328 824
              C 394 848, 453 854, 480 854
              C 507 854, 566 848, 632 824
              C 704 798, 748 756, 748 705

              C 748 664, 732 631, 702 606
              C 674 583, 642 559, 613 528
              C 588 500, 566 469, 544 441

              C 526 420, 506 409, 480 409
              C 454 409, 434 420, 416 441

              C 394 469, 372 500, 347 528
              C 318 559, 286 583, 258 606
              C 228 631, 212 664, 212 705
              Z
            "/>
          </g>
        </svg>